<?xml version="1.0" encoding="UTF-8" standalone="no"?><!DOCTYPE svg PUBLIC "-//W3C//DTD SVG 1.1//EN" "http://www.w3.org/Graphics/SVG/1.1/DTD/svg11.dtd"><svg width="100%" height="100%" viewBox="0 0 2084 488" version="1.1" xmlns="http://www.w3.org/2000/svg" xmlns:xlink="http://www.w3.org/1999/xlink" xml:space="preserve" xmlns:serif="http://www.serif.com/" style="fill-rule:evenodd;clip-rule:evenodd;stroke-linejoin:round;stroke-miterlimit:2;"><path d="M348.375,115.704l147.803,0l0,13.914c0,73.252 -59.946,132.723 -133.783,132.723l-14.025,0l0,-146.632l0.005,-0.005Z" style="fill:#ffc4a6;fill-rule:nonzero;"/><path d="M180.167,262.336l0,143.368c81.632,0 147.803,-65.652 147.803,-146.632l0,-143.368c-81.632,0 -147.803,65.652 -147.803,146.632Z" style="fill:#ffc4a6;fill-rule:nonzero;"/><path d="M348.375,259.072l147.803,0l0,146.632c-81.577,0 -147.803,-65.702 -147.803,-146.632Z" style="fill:#ffc4a6;fill-rule:nonzero;"/><g><path d="M622.996,186.039l0,111.745l45.016,0l0,31.544l-82.562,0l0,-143.289l37.546,0Z" style="fill:#333;fill-rule:nonzero;"/><path d="M677.972,257.688c0,-10.645 1.98,-20.556 5.94,-29.738c3.96,-9.182 9.45,-17.198 16.475,-24.043c7.02,-6.841 15.42,-12.193 25.191,-16.057c9.765,-3.859 20.52,-5.794 32.276,-5.794c11.615,0 22.345,1.935 32.186,5.794c9.83,3.864 18.29,9.217 25.376,16.057c7.09,6.845 12.61,14.857 16.57,24.043c3.955,9.187 5.94,19.098 5.94,29.738c0,10.64 -1.98,20.561 -5.94,29.743c-3.96,9.187 -9.48,17.198 -16.57,24.039c-7.085,6.845 -15.545,12.198 -25.376,16.057c-9.84,3.864 -20.565,5.799 -32.186,5.799c-11.755,0 -22.51,-1.935 -32.276,-5.799c-9.77,-3.859 -18.17,-9.212 -25.191,-16.057c-7.025,-6.841 -12.515,-14.852 -16.475,-24.039c-3.96,-9.187 -5.94,-19.103 -5.94,-29.743Zm39.271,0c0,5.7 1.085,10.963 3.255,15.774c2.175,4.822 5.105,8.998 8.815,12.545c3.7,3.547 8.015,6.305 12.93,8.264c4.91,1.964 10.115,2.947 15.61,2.947c5.495,0 10.695,-0.977 15.61,-2.947c4.915,-1.964 9.26,-4.717 13.025,-8.264c3.765,-3.547 6.735,-7.728 8.905,-12.545c2.17,-4.812 3.255,-10.07 3.255,-15.774c0,-5.705 -1.09,-10.953 -3.255,-15.774c-2.175,-4.812 -5.14,-8.988 -8.905,-12.54c-3.77,-3.547 -8.11,-6.305 -13.025,-8.264c-4.915,-1.964 -10.12,-2.947 -15.61,-2.947c-5.49,0 -10.7,0.977 -15.61,2.947c-4.915,1.964 -9.23,4.717 -12.93,8.264c-3.705,3.552 -6.64,7.733 -8.815,12.54c-2.175,4.822 -3.255,10.07 -3.255,15.774Z" style="fill:#333;fill-rule:nonzero;"/><path d="M981.783,329.333l-46.746,-0l-35.821,-55.111l0,55.111l-37.546,0l0,-143.289l58.426,0c8.045,0 15.07,1.171 21.075,3.512c6,2.351 10.945,5.546 14.845,9.604c3.9,4.058 6.83,8.74 8.815,14.063c1.98,5.318 2.97,11.022 2.97,17.099c0,10.898 -2.65,19.738 -7.95,26.514c-5.305,6.776 -13.125,11.369 -23.465,13.775l45.396,58.722Zm-82.567,-79.249l7.09,0c7.4,0 13.085,-1.523 17.045,-4.559c3.96,-3.041 5.94,-7.411 5.94,-13.116c0,-5.705 -1.98,-10.07 -5.94,-13.116c-3.96,-3.046 -9.645,-4.564 -17.045,-4.564l-7.09,0l0,35.353Z" style="fill:#333;fill-rule:nonzero;"/><path d="M1079.665,217.593l-44.636,0l0,23.944l42.146,0l0,31.544l-42.146,0l0,24.703l44.636,0l0,31.544l-82.182,0l0,-143.289l82.182,0l0,31.554Z" style="fill:#333;fill-rule:nonzero;"/><path d="M1100.165,329.333l24.515,-143.289l37.166,0l28.921,76.392l28.736,-76.392l37.161,0l24.52,143.289l-37.356,0l-12.45,-82.478l-34.096,82.478l-14.94,0l-32.376,-82.478l-12.45,82.478l-37.351,0Z" style="fill:#333;fill-rule:nonzero;"/><path d="M1342.48,186.039l0,111.745l45.016,0l0,31.544l-82.562,0l0,-143.289l37.546,0Z" style="fill:#333;fill-rule:nonzero;"/><path d="M1397.456,257.688c0,-10.645 1.98,-20.556 5.94,-29.738c3.96,-9.182 9.45,-17.198 16.475,-24.043c7.02,-6.841 15.42,-12.193 25.191,-16.057c9.765,-3.859 20.52,-5.794 32.276,-5.794c11.615,0 22.345,1.935 32.186,5.794c9.83,3.864 18.29,9.217 25.376,16.057c7.09,6.845 12.61,14.857 16.57,24.043c3.955,9.187 5.94,19.098 5.94,29.738c0,10.64 -1.98,20.561 -5.94,29.743c-3.96,9.187 -9.48,17.198 -16.57,24.039c-7.085,6.845 -15.545,12.198 -25.376,16.057c-9.84,3.864 -20.565,5.799 -32.186,5.799c-11.755,0 -22.51,-1.935 -32.276,-5.799c-9.77,-3.859 -18.17,-9.212 -25.191,-16.057c-7.025,-6.841 -12.515,-14.852 -16.475,-24.039c-3.96,-9.187 -5.94,-19.103 -5.94,-29.743Zm39.271,0c0,5.7 1.085,10.963 3.255,15.774c2.175,4.822 5.105,8.998 8.815,12.545c3.7,3.547 8.015,6.305 12.93,8.264c4.91,1.964 10.115,2.947 15.61,2.947c5.495,0 10.695,-0.977 15.61,-2.947c4.915,-1.964 9.26,-4.717 13.025,-8.264c3.765,-3.547 6.735,-7.728 8.905,-12.545c2.17,-4.812 3.255,-10.07 3.255,-15.774c0,-5.705 -1.09,-10.953 -3.255,-15.774c-2.175,-4.812 -5.14,-8.988 -8.905,-12.54c-3.77,-3.547 -8.11,-6.305 -13.025,-8.264c-4.915,-1.964 -10.12,-2.947 -15.61,-2.947c-5.49,0 -10.7,0.977 -15.61,2.947c-4.915,1.964 -9.23,4.717 -12.93,8.264c-3.705,3.552 -6.64,7.733 -8.815,12.54c-2.175,4.822 -3.255,10.07 -3.255,15.774Z" style="fill:#333;fill-rule:nonzero;"/><path d="M1651.462,249.136l74.512,0c0,7.599 -0.315,14.509 -0.955,20.715c-0.64,6.211 -1.915,11.975 -3.835,17.292c-2.68,7.475 -6.32,14.098 -10.92,19.857c-4.595,5.769 -9.99,10.581 -16.185,14.445c-6.19,3.864 -12.995,6.811 -20.4,8.835c-7.405,2.024 -15.195,3.041 -23.37,3.041c-11.235,0 -21.485,-1.84 -30.741,-5.511c-9.265,-3.671 -17.21,-8.835 -23.85,-15.487c-6.64,-6.652 -11.815,-14.633 -15.52,-23.944c-3.705,-9.311 -5.55,-19.604 -5.55,-30.884c0,-11.146 1.815,-21.38 5.46,-30.691c3.64,-9.316 8.81,-17.262 15.515,-23.855c6.705,-6.583 14.78,-11.717 24.235,-15.392c9.45,-3.676 19.985,-5.511 31.606,-5.511c15.065,0 28.281,3.229 39.651,9.693c11.365,6.459 20.37,16.469 27.011,30.026l-35.631,14.633c-3.32,-7.857 -7.63,-13.497 -12.93,-16.915c-5.305,-3.418 -11.335,-5.129 -18.1,-5.129c-5.62,0 -10.73,1.047 -15.325,3.135c-4.595,2.093 -8.52,5.07 -11.775,8.934c-3.255,3.864 -5.815,8.522 -7.66,13.964c-1.855,5.452 -2.78,11.533 -2.78,18.25c0,6.082 0.795,11.717 2.395,16.91c1.595,5.199 3.99,9.693 7.185,13.493c3.195,3.805 7.155,6.746 11.875,8.835c4.725,2.093 10.215,3.14 16.475,3.14c3.7,0 7.28,-0.412 10.73,-1.235c3.45,-0.823 6.545,-2.158 9.29,-3.993c2.745,-1.835 5.01,-4.211 6.795,-7.128c1.785,-2.912 3.005,-6.464 3.645,-10.645l-30.841,0l0,-28.885l-0.01,0.01Z" style="fill:#333;fill-rule:nonzero;"/><path d="M1743.213,257.688c0,-10.645 1.98,-20.556 5.94,-29.738c3.96,-9.182 9.45,-17.198 16.475,-24.043c7.02,-6.841 15.42,-12.193 25.191,-16.057c9.765,-3.859 20.52,-5.794 32.276,-5.794c11.615,0 22.345,1.935 32.186,5.794c9.83,3.864 18.29,9.217 25.376,16.057c7.09,6.845 12.61,14.857 16.57,24.043c3.955,9.187 5.94,19.098 5.94,29.738c0,10.64 -1.98,20.561 -5.94,29.743c-3.96,9.187 -9.48,17.198 -16.57,24.039c-7.085,6.845 -15.545,12.198 -25.376,16.057c-9.84,3.864 -20.565,5.799 -32.186,5.799c-11.755,0 -22.51,-1.935 -32.276,-5.799c-9.77,-3.859 -18.17,-9.212 -25.191,-16.057c-7.025,-6.841 -12.515,-14.852 -16.475,-24.039c-3.96,-9.187 -5.94,-19.103 -5.94,-29.743Zm39.271,0c0,5.7 1.085,10.963 3.255,15.774c2.175,4.822 5.105,8.998 8.815,12.545c3.7,3.547 8.015,6.305 12.93,8.264c4.91,1.964 10.115,2.947 15.61,2.947c5.495,0 10.695,-0.977 15.61,-2.947c4.915,-1.964 9.26,-4.717 13.025,-8.264c3.765,-3.547 6.735,-7.728 8.905,-12.545c2.17,-4.812 3.255,-10.07 3.255,-15.774c0,-5.705 -1.09,-10.953 -3.255,-15.774c-2.175,-4.812 -5.14,-8.988 -8.905,-12.54c-3.77,-3.547 -8.11,-6.305 -13.025,-8.264c-4.915,-1.964 -10.12,-2.947 -15.61,-2.947c-5.49,0 -10.7,0.977 -15.61,2.947c-4.915,1.964 -9.23,4.717 -12.93,8.264c-3.705,3.552 -6.64,7.733 -8.815,12.54c-2.175,4.822 -3.255,10.07 -3.255,15.774Z" style="fill:#333;fill-rule:nonzero;"/></g></svg>