<?xml version="1.0" encoding="UTF-8" standalone="no"?><!DOCTYPE svg PUBLIC "-//W3C//DTD SVG 1.1//EN" "http://www.w3.org/Graphics/SVG/1.1/DTD/svg11.dtd"><svg width="100%" height="100%" viewBox="0 0 27409 8475" version="1.1" xmlns="http://www.w3.org/2000/svg" xmlns:xlink="http://www.w3.org/1999/xlink" xml:space="preserve" xmlns:serif="http://www.serif.com/" style="fill-rule:evenodd;clip-rule:evenodd;stroke-linejoin:round;stroke-miterlimit:2;"><path d="M3741.458,1718.75l2566.025,0l0,241.562c0,1271.737 -1040.729,2304.221 -2322.621,2304.221l-243.492,0l0,-2545.696l0.087,-0.088Z" style="fill:#7297c5;fill-rule:nonzero;"/><path d="M821.179,4264.446l0,2489.029c1417.221,0 2566.025,-1139.792 2566.025,-2545.696l0,-2489.029c-1417.221,0 -2566.025,1139.792 -2566.025,2545.696Z" style="fill:#7297c5;fill-rule:nonzero;"/><path d="M3741.458,4207.779l2566.025,0l0,2545.696c-1416.267,0 -2566.025,-1140.658 -2566.025,-2545.696Z" style="fill:#7297c5;fill-rule:nonzero;"/><g transform="matrix(4244.83068,0,0,4244.83068,8161.050624,5712.578661)"><path d="M0.691,-0.708l0,0.02c-0.015,0.006 -0.031,0.02 -0.048,0.039c-0.017,0.02 -0.033,0.05 -0.048,0.09l-0.203,0.56c-0.007,-0.001 -0.014,-0.001 -0.021,-0.001c-0.007,-0 -0.015,-0 -0.023,-0c-0.007,0 -0.015,0 -0.022,0c-0.007,0 -0.015,0.001 -0.021,0.001l-0.258,-0.625c-0.009,-0.024 -0.02,-0.04 -0.03,-0.049c-0.011,-0.009 -0.021,-0.014 -0.031,-0.015l-0,-0.02c0.022,0.001 0.048,0.001 0.077,0.002c0.03,0.001 0.06,0.001 0.089,0.001c0.032,0 0.063,-0 0.091,-0.001c0.029,-0.001 0.051,-0.001 0.069,-0.002l0,0.02c-0.021,0.001 -0.038,0.003 -0.049,0.007c-0.012,0.004 -0.019,0.012 -0.02,0.024c-0.002,0.012 0.002,0.029 0.011,0.053l0.181,0.453l-0.022,0.028l0.126,-0.346c0.019,-0.054 0.029,-0.097 0.03,-0.128c0.001,-0.032 -0.006,-0.054 -0.021,-0.068c-0.015,-0.014 -0.035,-0.021 -0.062,-0.022l0,-0.02c0.024,0.001 0.046,0.001 0.066,0.002c0.02,0.001 0.04,0.001 0.062,0.001c0.014,0 0.028,-0 0.041,-0.001c0.013,-0.001 0.025,-0.001 0.035,-0.002Z" style="fill-rule:nonzero;"/></g><g transform="matrix(4244.83068,0,0,4244.83068,10722.378192,5712.578661)"><path d="M0.383,-0.709l0.242,0.625c0.009,0.023 0.02,0.039 0.031,0.049c0.011,0.009 0.021,0.014 0.03,0.015l0,0.02c-0.022,-0.001 -0.048,-0.002 -0.077,-0.003c-0.029,-0 -0.059,-0.001 -0.09,-0.001c-0.032,-0 -0.063,0 -0.091,0.001c-0.029,0 -0.051,0.001 -0.069,0.003l0,-0.02c0.034,-0.001 0.056,-0.007 0.065,-0.017c0.009,-0.01 0.007,-0.033 -0.006,-0.067l-0.165,-0.454l0.019,-0.031l-0.145,0.378c-0.015,0.04 -0.025,0.072 -0.028,0.097c-0.003,0.025 -0.002,0.044 0.005,0.057c0.006,0.013 0.017,0.023 0.031,0.028c0.014,0.005 0.032,0.008 0.052,0.009l0,0.02c-0.023,-0.001 -0.045,-0.002 -0.065,-0.003c-0.02,-0 -0.041,-0.001 -0.063,-0.001c-0.013,-0 -0.027,0 -0.041,0.001c-0.014,0 -0.026,0.001 -0.036,0.003l0,-0.02c0.015,-0.003 0.03,-0.012 0.045,-0.028c0.015,-0.016 0.03,-0.044 0.045,-0.083l0.225,-0.578c0.013,0.001 0.028,0.002 0.044,0.002c0.016,0 0.03,-0.001 0.044,-0.002Zm0.052,0.421l0,0.02l-0.298,0l0.01,-0.02l0.288,0Z" style="fill-rule:nonzero;"/></g><g transform="matrix(4244.83068,0,0,4244.83068,13607.161909,5712.578661)"><path d="M0.676,-0.708l0,0.02c-0.021,0.003 -0.036,0.01 -0.047,0.019c-0.011,0.009 -0.018,0.024 -0.021,0.043c-0.003,0.019 -0.005,0.047 -0.005,0.082l0,0.253c0,0.042 -0.003,0.082 -0.009,0.118c-0.006,0.036 -0.017,0.068 -0.032,0.094c-0.017,0.029 -0.043,0.051 -0.077,0.068c-0.034,0.017 -0.078,0.025 -0.132,0.025c-0.031,0 -0.063,-0.003 -0.096,-0.01c-0.033,-0.007 -0.062,-0.02 -0.088,-0.039c-0.022,-0.017 -0.039,-0.037 -0.051,-0.061c-0.012,-0.023 -0.02,-0.051 -0.024,-0.082c-0.004,-0.032 -0.006,-0.068 -0.006,-0.11l0,-0.314c0,-0.025 -0.002,-0.043 -0.005,-0.054c-0.003,-0.012 -0.01,-0.02 -0.021,-0.024c-0.01,-0.004 -0.026,-0.007 -0.047,-0.008l0,-0.02c0.018,0.001 0.042,0.001 0.072,0.002c0.03,0.001 0.061,0.001 0.094,0.001c0.032,0 0.064,-0 0.094,-0.001c0.03,-0.001 0.055,-0.001 0.075,-0.002l0,0.02c-0.023,0.001 -0.04,0.003 -0.051,0.008c-0.012,0.004 -0.02,0.012 -0.024,0.024c-0.004,0.012 -0.006,0.03 -0.006,0.054l0,0.393c0,0.033 0.002,0.061 0.007,0.085c0.005,0.024 0.013,0.044 0.023,0.059c0.01,0.015 0.024,0.026 0.041,0.034c0.017,0.007 0.037,0.011 0.061,0.011c0.046,0 0.082,-0.011 0.107,-0.033c0.026,-0.022 0.044,-0.052 0.055,-0.091c0.011,-0.039 0.016,-0.084 0.016,-0.135l0,-0.248c0,-0.041 -0.002,-0.072 -0.006,-0.093c-0.004,-0.022 -0.013,-0.037 -0.027,-0.047c-0.014,-0.01 -0.036,-0.016 -0.066,-0.02l0,-0.02c0.013,0.001 0.03,0.001 0.051,0.002c0.021,0.001 0.041,0.001 0.059,0.001c0.016,0 0.031,-0 0.047,-0.001c0.015,-0.001 0.028,-0.001 0.038,-0.002Z" style="fill-rule:nonzero;"/></g><g transform="matrix(4244.83068,0,0,4244.83068,16539.490372,5712.578661)"><path d="M0.366,-0.708l0,0.02c-0.023,0.001 -0.04,0.003 -0.051,0.008c-0.012,0.004 -0.02,0.012 -0.024,0.024c-0.004,0.012 -0.006,0.03 -0.006,0.054l0,0.512c0,0.019 0.001,0.034 0.004,0.043c0.003,0.01 0.008,0.016 0.017,0.019c0.008,0.003 0.02,0.005 0.036,0.005l0.041,0c0.02,-0 0.04,-0.006 0.06,-0.018c0.02,-0.012 0.039,-0.029 0.056,-0.05c0.018,-0.022 0.033,-0.047 0.045,-0.075c0.012,-0.029 0.021,-0.059 0.027,-0.092l0.023,0c-0.002,0.023 -0.003,0.053 -0.003,0.09c0,0.016 0,0.04 0.001,0.071c0.001,0.031 0.003,0.063 0.006,0.097c-0.034,-0.001 -0.072,-0.002 -0.115,-0.003c-0.043,-0 -0.081,-0.001 -0.114,-0.001l-0.066,0c-0.027,-0 -0.056,0 -0.087,0.001c-0.031,0 -0.063,0.001 -0.095,0.001c-0.032,0 -0.062,0.001 -0.09,0.002l0,-0.02c0.021,-0.001 0.037,-0.004 0.047,-0.008c0.01,-0.004 0.017,-0.012 0.021,-0.024c0.003,-0.012 0.005,-0.03 0.005,-0.054l0,-0.496c0,-0.025 -0.002,-0.043 -0.005,-0.054c-0.003,-0.012 -0.01,-0.02 -0.021,-0.024c-0.011,-0.004 -0.026,-0.007 -0.047,-0.008l0,-0.02c0.018,0.001 0.042,0.001 0.072,0.002c0.03,0.001 0.062,0.001 0.096,0.001c0.031,0 0.062,-0 0.092,-0.001c0.03,-0.001 0.055,-0.001 0.075,-0.002Z" style="fill-rule:nonzero;"/></g><g transform="matrix(4244.83068,0,0,4244.83068,18884.332871,5712.578661)"><path d="M0.659,-0.708c-0.003,0.037 -0.004,0.072 -0.005,0.106c-0.001,0.034 -0.002,0.06 -0.002,0.078c0,0.014 0,0.028 0.001,0.041c0.001,0.013 0.001,0.024 0.002,0.033l-0.023,0c-0.013,-0.059 -0.029,-0.106 -0.048,-0.141c-0.019,-0.034 -0.04,-0.058 -0.064,-0.073c-0.023,-0.014 -0.049,-0.022 -0.077,-0.022l-0.012,0l0,0.571c0,0.027 0.003,0.047 0.008,0.061c0.006,0.013 0.016,0.022 0.032,0.026c0.016,0.004 0.039,0.006 0.069,0.007l0,0.02c-0.022,-0.001 -0.052,-0.002 -0.089,-0.002c-0.037,-0.001 -0.076,-0.001 -0.116,-0.001c-0.039,-0 -0.076,0 -0.11,0.001c-0.035,0.001 -0.063,0.001 -0.084,0.002l0,-0.02c0.03,-0 0.053,-0.002 0.069,-0.007c0.016,-0.004 0.026,-0.013 0.032,-0.026c0.006,-0.013 0.008,-0.034 0.008,-0.061l0,-0.571l-0.012,0c-0.027,0 -0.053,0.007 -0.076,0.022c-0.024,0.014 -0.045,0.039 -0.063,0.073c-0.019,0.034 -0.035,0.081 -0.049,0.141l-0.023,0c0.001,-0.009 0.002,-0.02 0.003,-0.033c0,-0.013 0.001,-0.027 0.001,-0.041c0,-0.018 -0.001,-0.044 -0.002,-0.078c-0.001,-0.034 -0.003,-0.069 -0.006,-0.106c0.031,0.001 0.066,0.001 0.103,0.002c0.038,0.001 0.075,0.001 0.113,0.001l0.204,0c0.038,0 0.075,-0 0.113,-0.001c0.038,-0.001 0.072,-0.001 0.102,-0.002Z" style="fill-rule:nonzero;"/></g><g transform="matrix(4244.83068,0,0,4244.83068,21785.246115,5712.578661)"><path d="M0.366,-0.708l0,0.02c-0.023,0.001 -0.04,0.003 -0.051,0.008c-0.012,0.004 -0.02,0.012 -0.024,0.024c-0.004,0.012 -0.006,0.03 -0.006,0.054l0,0.512c0,0.019 0.001,0.034 0.004,0.043c0.003,0.01 0.008,0.016 0.017,0.019c0.008,0.003 0.02,0.005 0.036,0.005l0.041,0c0.02,-0 0.04,-0.006 0.06,-0.018c0.02,-0.012 0.039,-0.029 0.056,-0.05c0.018,-0.022 0.033,-0.047 0.045,-0.075c0.012,-0.029 0.021,-0.059 0.027,-0.092l0.023,0c-0.002,0.023 -0.003,0.053 -0.003,0.09c0,0.016 0,0.04 0.001,0.071c0.001,0.031 0.003,0.063 0.006,0.097c-0.034,-0.001 -0.072,-0.002 -0.115,-0.003c-0.043,-0 -0.081,-0.001 -0.114,-0.001l-0.066,0c-0.027,-0 -0.056,0 -0.087,0.001c-0.031,0 -0.063,0.001 -0.095,0.001c-0.032,0 -0.062,0.001 -0.09,0.002l0,-0.02c0.021,-0.001 0.037,-0.004 0.047,-0.008c0.01,-0.004 0.017,-0.012 0.021,-0.024c0.003,-0.012 0.005,-0.03 0.005,-0.054l0,-0.496c0,-0.025 -0.002,-0.043 -0.005,-0.054c-0.003,-0.012 -0.01,-0.02 -0.021,-0.024c-0.011,-0.004 -0.026,-0.007 -0.047,-0.008l0,-0.02c0.018,0.001 0.042,0.001 0.072,0.002c0.03,0.001 0.062,0.001 0.096,0.001c0.031,0 0.062,-0 0.092,-0.001c0.03,-0.001 0.055,-0.001 0.075,-0.002Z" style="fill-rule:nonzero;"/></g><g transform="matrix(4244.83068,0,0,4244.83068,24087.640307,5712.578661)"><path d="M0.626,-0.709l0,0.02c-0.015,0.006 -0.03,0.019 -0.047,0.038c-0.016,0.019 -0.034,0.048 -0.054,0.086l-0.184,0.366l-0.057,0l-0.234,-0.433c-0.012,-0.022 -0.023,-0.037 -0.032,-0.044c-0.01,-0.008 -0.018,-0.011 -0.026,-0.011l0,-0.021c0.019,0.002 0.039,0.003 0.06,0.004c0.021,0.001 0.043,0.001 0.068,0.001c0.032,0 0.066,-0.001 0.102,-0.002c0.037,-0.001 0.071,-0.002 0.102,-0.004l0,0.021c-0.017,0 -0.032,0.001 -0.046,0.003c-0.014,0.002 -0.023,0.006 -0.029,0.012c-0.006,0.006 -0.005,0.016 0.002,0.03l0.155,0.297l-0.039,0.051l0.094,-0.187c0.026,-0.052 0.04,-0.092 0.043,-0.122c0.002,-0.03 -0.004,-0.051 -0.019,-0.064c-0.015,-0.013 -0.036,-0.02 -0.063,-0.02l0,-0.02c0.024,0.001 0.046,0.001 0.066,0.002c0.02,0.001 0.04,0.001 0.062,0.001c0.014,0 0.028,-0 0.041,-0.001c0.013,-0.001 0.025,-0.001 0.035,-0.002Zm-0.207,0.334l0,0.269c0,0.024 0.002,0.042 0.006,0.054c0.004,0.012 0.011,0.02 0.021,0.024c0.01,0.004 0.026,0.007 0.046,0.008l0,0.02c-0.019,-0.001 -0.043,-0.002 -0.073,-0.003c-0.03,-0 -0.06,-0.001 -0.09,-0.001c-0.032,-0 -0.064,0 -0.093,0.001c-0.03,0 -0.053,0.001 -0.071,0.003l0,-0.02c0.021,-0.001 0.037,-0.004 0.047,-0.008c0.01,-0.004 0.017,-0.012 0.021,-0.024c0.003,-0.012 0.005,-0.03 0.005,-0.054l0,-0.205l0.098,0.062l0.083,-0.126Z" style="fill-rule:nonzero;"/></g></svg>